<svg width="78" height="23" viewBox="0 0 78 23" fill="none" xmlns="http://www.w3.org/2000/svg">
<path d="M13.4357 16.6001C13.5426 17.0268 13.5961 17.5601 13.5961 18.2001C13.5961 18.8134 13.5426 19.3468 13.4357 19.8001H11.8317C11.9386 20.2268 11.9921 20.7601 11.9921 21.4001C11.9921 22.0134 11.9386 22.5468 11.8317 23.0001H3.81189C3.70496 22.5468 3.65149 22.0134 3.65149 21.4001C3.65149 20.7601 3.70496 20.2268 3.81189 19.8001H2.20793C2.101 19.3468 2.04753 18.8134 2.04753 18.2001C2.04753 17.5601 2.101 17.0268 2.20793 16.6001H0.603969C0.497038 16.1468 0.443573 15.6134 0.443573 15.0001C0.443573 14.3601 0.497038 13.8268 0.603969 13.4001C0.497038 12.9468 0.443573 12.4134 0.443573 11.8001C0.443573 11.1601 0.497038 10.6268 0.603969 10.2001C0.497038 9.74676 0.443573 9.21343 0.443573 8.6001C0.443573 7.9601 0.497038 7.42676 0.603969 7.0001H2.20793C2.101 6.54676 2.04753 6.01343 2.04753 5.4001C2.04753 4.7601 2.101 4.22676 2.20793 3.8001H3.81189C3.70496 3.34676 3.65149 2.81343 3.65149 2.2001C3.65149 1.5601 3.70496 1.02676 3.81189 0.600098H11.8317C11.9386 1.02676 11.9921 1.5601 11.9921 2.2001C11.9921 2.81343 11.9386 3.34676 11.8317 3.8001H13.4357C13.5426 4.22676 13.5961 4.7601 13.5961 5.4001C13.5961 6.01343 13.5426 6.54676 13.4357 7.0001H10.2277C10.1208 6.54676 10.0673 6.01343 10.0673 5.4001C10.0673 4.7601 10.1208 4.22676 10.2277 3.8001H5.41585C5.52278 4.22676 5.57625 4.7601 5.57625 5.4001C5.57625 6.01343 5.52278 6.54676 5.41585 7.0001H3.81189C3.91882 7.42676 3.97229 7.9601 3.97229 8.6001C3.97229 9.21343 3.91882 9.74676 3.81189 10.2001C3.91882 10.6268 3.97229 11.1601 3.97229 11.8001C3.97229 12.4134 3.91882 12.9468 3.81189 13.4001C3.91882 13.8268 3.97229 14.3601 3.97229 15.0001C3.97229 15.6134 3.91882 16.1468 3.81189 16.6001H5.41585C5.52278 17.0268 5.57625 17.5601 5.57625 18.2001C5.57625 18.8134 5.52278 19.3468 5.41585 19.8001H10.2277C10.1208 19.3468 10.0673 18.8134 10.0673 18.2001C10.0673 17.5601 10.1208 17.0268 10.2277 16.6001H13.4357Z" fill="white"/>
<path d="M41.2957 5.4001C41.2957 6.01343 41.2422 6.54676 41.1353 7.0001C41.2422 7.42676 41.2957 7.9601 41.2957 8.6001C41.2957 9.21343 41.2422 9.74676 41.1353 10.2001H37.1254C37.0185 9.74676 36.965 9.21343 36.965 8.6001C36.965 7.9601 37.0185 7.42676 37.1254 7.0001C37.0185 6.54676 36.965 6.01343 36.965 5.4001C36.965 4.7601 37.0185 4.22676 37.1254 3.8001H41.1353C41.2422 4.22676 41.2957 4.7601 41.2957 5.4001ZM41.1353 16.6001C41.2422 17.0268 41.2957 17.5601 41.2957 18.2001C41.2957 18.8134 41.2422 19.3468 41.1353 19.8001C41.2422 20.2268 41.2957 20.7601 41.2957 21.4001C41.2957 22.0134 41.2422 22.5468 41.1353 23.0001H37.1254C37.0185 22.5468 36.965 22.0134 36.965 21.4001C36.965 20.7601 37.0185 20.2268 37.1254 19.8001C37.0185 19.3468 36.965 18.8134 36.965 18.2001C36.965 17.5601 37.0185 17.0268 37.1254 16.6001H41.1353Z" fill="white"/>
<path d="M77.6567 19.8001C77.7637 20.2268 77.8171 20.7601 77.8171 21.4001C77.8171 22.0134 77.7637 22.5468 77.6567 23.0001H66.429C66.3221 22.5468 66.2686 22.0134 66.2686 21.4001C66.2686 20.7601 66.3221 20.2268 66.429 19.8001C66.3221 19.3468 66.2686 18.8134 66.2686 18.2001C66.2686 17.5601 66.3221 17.0268 66.429 16.6001C66.3221 16.1468 66.2686 15.6134 66.2686 15.0001C66.2686 14.3601 66.3221 13.8268 66.429 13.4001C66.3221 12.9468 66.2686 12.4134 66.2686 11.8001C66.2686 11.1601 66.3221 10.6268 66.429 10.2001C66.3221 9.74676 66.2686 9.21343 66.2686 8.6001C66.2686 7.9601 66.3221 7.42676 66.429 7.0001C66.3221 6.54676 66.2686 6.01343 66.2686 5.4001C66.2686 4.7601 66.3221 4.22676 66.429 3.8001C66.3221 3.34676 66.2686 2.81343 66.2686 2.2001C66.2686 1.5601 66.3221 1.02676 66.429 0.600098H69.6369C69.7439 1.02676 69.7973 1.5601 69.7973 2.2001C69.7973 2.81343 69.7439 3.34676 69.6369 3.8001C69.7439 4.22676 69.7973 4.7601 69.7973 5.4001C69.7973 6.01343 69.7439 6.54676 69.6369 7.0001C69.7439 7.42676 69.7973 7.9601 69.7973 8.6001C69.7973 9.21343 69.7439 9.74676 69.6369 10.2001C69.7439 10.6268 69.7973 11.1601 69.7973 11.8001C69.7973 12.4134 69.7439 12.9468 69.6369 13.4001C69.7439 13.8268 69.7973 14.3601 69.7973 15.0001C69.7973 15.6134 69.7439 16.1468 69.6369 16.6001C69.7439 17.0268 69.7973 17.5601 69.7973 18.2001C69.7973 18.8134 69.7439 19.3468 69.6369 19.8001H77.6567Z" fill="white"/>
</svg>
