<svg width="25" height="27" viewBox="0 0 25 27" fill="none" xmlns="http://www.w3.org/2000/svg">
<path d="M9.66657 21.7778C4.11102 23.4445 4.11102 19 1.88879 18.4445M17.4444 25.1111V20.8111C17.486 20.2813 17.4144 19.7487 17.2344 19.2487C17.0543 18.7487 16.7698 18.2927 16.3999 17.9112C19.8888 17.5223 23.5555 16.2 23.5555 10.1334C23.5552 8.58207 22.9585 7.09026 21.8888 5.96671C22.3953 4.60949 22.3595 3.10932 21.7888 1.77782C21.7888 1.77782 20.4777 1.38893 17.4444 3.42226C14.8977 2.73206 12.2132 2.73206 9.66657 3.42226C6.63324 1.38893 5.32213 1.77782 5.32213 1.77782C4.75143 3.10932 4.71562 4.60949 5.22213 5.96671C4.14449 7.09859 3.54715 8.60389 3.55546 10.1667C3.55546 16.1889 7.22213 17.5112 10.711 17.9445C10.3455 18.3222 10.0635 18.7727 9.88358 19.2666C9.70363 19.7605 9.62969 20.2868 9.66657 20.8111V25.1111" stroke="white" stroke-width="2" stroke-linecap="round" stroke-linejoin="round"/>
</svg>
