<svg width="48" height="48" viewBox="0 0 48 48" fill="none" xmlns="http://www.w3.org/2000/svg">
<rect width="48" height="48" rx="8" fill="#FAFAFA"/>
<path d="M29.3333 18.6667C31.455 18.6667 33.4899 19.5096 34.9901 21.0099C36.4904 22.5102 37.3333 24.545 37.3333 26.6667V36.0001H32V26.6667C32 25.9595 31.719 25.2812 31.2189 24.7811C30.7188 24.281 30.0405 24.0001 29.3333 24.0001C28.626 24.0001 27.9478 24.281 27.4477 24.7811C26.9476 25.2812 26.6666 25.9595 26.6666 26.6667V36.0001H21.3333V26.6667C21.3333 24.545 22.1761 22.5102 23.6764 21.0099C25.1767 19.5096 27.2116 18.6667 29.3333 18.6667Z" stroke="#1E1E1E" stroke-width="4" stroke-linecap="round" stroke-linejoin="round"/>
<path d="M16 20.0001H10.6666V36.0001H16V20.0001Z" stroke="#1E1E1E" stroke-width="4" stroke-linecap="round" stroke-linejoin="round"/>
<path d="M13.3333 16.0001C14.8061 16.0001 16 14.8062 16 13.3334C16 11.8607 14.8061 10.6667 13.3333 10.6667C11.8605 10.6667 10.6666 11.8607 10.6666 13.3334C10.6666 14.8062 11.8605 16.0001 13.3333 16.0001Z" stroke="#1E1E1E" stroke-width="4" stroke-linecap="round" stroke-linejoin="round"/>
</svg>
