<svg width="28" height="28" viewBox="0 0 28 28" fill="none" xmlns="http://www.w3.org/2000/svg">
<path d="M18.4443 9.55534C20.2125 9.55534 21.9082 10.2577 23.1584 11.508C24.4086 12.7582 25.111 14.4539 25.111 16.222V23.9998H20.6666V16.222C20.6666 15.6326 20.4324 15.0674 20.0157 14.6507C19.5989 14.2339 19.0337 13.9998 18.4443 13.9998C17.855 13.9998 17.2897 14.2339 16.873 14.6507C16.4563 15.0674 16.2221 15.6326 16.2221 16.222V23.9998H11.7777V16.222C11.7777 14.4539 12.4801 12.7582 13.7303 11.508C14.9805 10.2577 16.6762 9.55534 18.4443 9.55534Z" stroke="white" stroke-width="2" stroke-linecap="round" stroke-linejoin="round"/>
<path d="M7.33324 10.6664H2.88879V23.9998H7.33324V10.6664Z" stroke="white" stroke-width="2" stroke-linecap="round" stroke-linejoin="round"/>
<path d="M5.11102 7.33312C6.33832 7.33312 7.33324 6.33819 7.33324 5.11089C7.33324 3.88359 6.33832 2.88867 5.11102 2.88867C3.88372 2.88867 2.88879 3.88359 2.88879 5.11089C2.88879 6.33819 3.88372 7.33312 5.11102 7.33312Z" stroke="white" stroke-width="2" stroke-linecap="round" stroke-linejoin="round"/>
</svg>
