<svg width="28" height="23" viewBox="0 0 28 23" fill="none" xmlns="http://www.w3.org/2000/svg">
<path d="M26.2222 1.99994C25.1581 2.75047 23.9801 3.32451 22.7333 3.69994C22.0641 2.93051 21.1747 2.38516 20.1855 2.13764C19.1963 1.89012 18.1549 1.95238 17.2022 2.316C16.2496 2.67962 15.4315 3.32705 14.8588 4.17074C14.2861 5.01442 13.9863 6.01365 13.9999 7.03328V8.14439C12.0473 8.19502 10.1125 7.76196 8.36772 6.88377C6.62298 6.00559 5.12251 4.70954 3.99993 3.11105C3.99993 3.11105 -0.444512 13.1111 9.55549 17.5555C7.26718 19.1088 4.54122 19.8876 1.77771 19.7777C11.7777 25.3333 23.9999 19.7777 23.9999 6.99994C23.9989 6.69045 23.9692 6.38171 23.911 6.07772C25.045 4.95938 25.8453 3.5474 26.2222 1.99994Z" stroke="white" stroke-width="2" stroke-linecap="round" stroke-linejoin="round"/>
</svg>
