<svg width="48" height="48" viewBox="0 0 48 48" fill="none" xmlns="http://www.w3.org/2000/svg">
<rect width="48" height="48" rx="8" fill="#FAFAFA"/>
<g clip-path="url(#clip0_12_120)">
<path d="M38.6667 12C37.3899 12.9006 35.9762 13.5895 34.48 14.04C33.677 13.1167 32.6098 12.4622 31.4228 12.1652C30.2357 11.8682 28.986 11.9429 27.8428 12.3793C26.6996 12.8156 25.718 13.5925 25.0307 14.6049C24.3434 15.6174 23.9836 16.8164 24 18.04V19.3733C21.6569 19.4341 19.3351 18.9144 17.2414 17.8606C15.1477 16.8068 13.3471 15.2515 12 13.3333C12 13.3333 6.66671 25.3333 18.6667 30.6666C15.9207 32.5306 12.6496 33.4652 9.33337 33.3333C21.3334 40 36 33.3333 36 18C35.9988 17.6286 35.9631 17.2581 35.8934 16.8933C37.2542 15.5513 38.2145 13.8569 38.6667 12Z" stroke="#1E1E1E" stroke-width="4" stroke-linecap="round" stroke-linejoin="round"/>
</g>
<defs>
<clipPath id="clip0_12_120">
<rect width="32" height="32" fill="white" transform="translate(8 8)"/>
</clipPath>
</defs>
</svg>
